<svg width="36" height="37" viewBox="0 0 36 37" fill="none" xmlns="http://www.w3.org/2000/svg">
<path d="M2.9675 14.0694V11.1019C2.9675 6.65061 5.935 3.68311 10.3862 3.68311H25.2238C29.675 3.68311 32.6425 6.65061 32.6425 11.1019V14.0694" stroke="white" stroke-width="1.5" stroke-miterlimit="10" stroke-linecap="round" stroke-linejoin="round"/>
<path d="M2.9675 22.9718V25.9393C2.9675 30.3906 5.935 33.3581 10.3862 33.3581H25.2238C29.675 33.3581 32.6425 30.3906 32.6425 25.9393V22.9718" stroke="white" stroke-width="1.5" stroke-miterlimit="10" stroke-linecap="round" stroke-linejoin="round"/>
<path d="M9.94113 14.4551L17.805 19.0102L25.6095 14.4848" stroke="white" stroke-width="1.5" stroke-linecap="round" stroke-linejoin="round"/>
<path d="M17.805 27.0818V18.9954" stroke="white" stroke-width="1.5" stroke-linecap="round" stroke-linejoin="round"/>
<path d="M15.9651 10.0484L11.2171 12.6895C10.1488 13.283 9.25861 14.7816 9.25861 16.0131V21.043C9.25861 22.2745 10.134 23.7731 11.2171 24.3666L15.9651 27.0076C16.9741 27.5715 18.6359 27.5715 19.6597 27.0076L24.4077 24.3666C25.476 23.7731 26.3662 22.2745 26.3662 21.043V16.0131C26.3662 14.7816 25.4908 13.283 24.4077 12.6895L19.6597 10.0484C18.6359 9.46971 16.9741 9.46971 15.9651 10.0484Z" stroke="white" stroke-width="1.5" stroke-linecap="round" stroke-linejoin="round"/>
</svg>
