<svg width="36" height="37" viewBox="0 0 36 37" fill="none" xmlns="http://www.w3.org/2000/svg">
<path d="M5.07947 11.9796L18.181 19.5616L31.1934 12.0241" stroke="white" stroke-width="1.5" stroke-linecap="round" stroke-linejoin="round"/>
<path d="M18.181 33.0044V19.5468" stroke="white" stroke-width="1.5" stroke-linecap="round" stroke-linejoin="round"/>
<path d="M32.4398 14.5465V22.9445C32.4398 23.0187 32.4398 23.078 32.425 23.1522C31.3863 22.2471 30.051 21.713 28.5672 21.713C27.1725 21.713 25.8816 22.2026 24.8578 23.0187C23.4928 24.1018 22.6322 25.7785 22.6322 27.648C22.6322 28.7608 22.9438 29.8143 23.4928 30.7045C23.6263 30.9419 23.7895 31.1645 23.9676 31.3722L21.2523 32.8708C19.5609 33.8204 16.8011 33.8204 15.1096 32.8708L7.18637 28.4789C5.39103 27.4848 3.92215 24.9921 3.92215 22.9445V14.5465C3.92215 12.4989 5.39103 10.0062 7.18637 9.01209L15.1096 4.62016C16.8011 3.67056 19.5609 3.67056 21.2523 4.62016L29.1756 9.01209C30.9709 10.0062 32.4398 12.4989 32.4398 14.5465Z" stroke="white" stroke-width="1.5" stroke-linecap="round" stroke-linejoin="round"/>
<path d="M34.5022 27.6479C34.5022 28.7607 34.1907 29.8142 33.6417 30.7044C33.3301 31.2386 32.9295 31.7134 32.4695 32.0991C31.4309 33.0339 30.0658 33.5829 28.5672 33.5829C26.401 33.5829 24.5166 32.4256 23.4928 30.7044C22.9438 29.8142 22.6322 28.7607 22.6322 27.6479C22.6322 25.7784 23.4928 24.1017 24.8579 23.0186C25.8816 22.2025 27.1725 21.7129 28.5672 21.7129C31.8463 21.7129 34.5022 24.3688 34.5022 27.6479Z" stroke="white" stroke-width="1.5" stroke-miterlimit="10" stroke-linecap="round" stroke-linejoin="round"/>
<path d="M30.1549 29.191L27.0093 26.0603" stroke="white" stroke-width="1.5" stroke-miterlimit="10" stroke-linecap="round" stroke-linejoin="round"/>
<path d="M30.1252 26.1049L26.9796 29.2355" stroke="white" stroke-width="1.5" stroke-miterlimit="10" stroke-linecap="round" stroke-linejoin="round"/>
</svg>
