<svg width="341" height="55" viewBox="0 0 341 55" fill="none" xmlns="http://www.w3.org/2000/svg">
<g clip-path="url(#clip0_921_7162)">
<path d="M313.537 52.571C303.756 52.571 297.849 45.9927 299.756 35.4112C301.608 24.8297 309.657 18.2514 319.564 18.2514C329.471 18.2514 335.077 24.709 333.285 34.8127C333.104 35.7683 332.869 36.7238 332.567 37.7398H309.482C309.005 42.1655 311.329 44.2577 314.671 44.2577C317.537 44.2577 319.384 42.8243 320.518 41.0289H331.378C328.573 47.5468 321.833 52.566 313.542 52.566L313.537 52.571ZM310.435 32.5445H323.263C323.86 28.5413 321.411 26.4491 317.953 26.4491C314.495 26.4491 311.63 28.6016 310.435 32.5445Z" fill="#6EC344"/>
<path d="M201.998 20.7308H211.769L205.541 51.9976L195.921 52.053L201.998 20.7308Z" fill="#13834B"/>
<path d="M226.765 10.265L224.722 19.7501H185.477L186.495 15.0126L187.519 10.265H226.765Z" fill="#13834B"/>
<path d="M226.474 23.0343L221.219 52.2843L226.399 52.3145L230.414 52.2843L235.673 23.0343H226.474Z" fill="#13834B"/>
<path d="M231.764 19.8305C234.303 19.8305 236.807 17.7685 237.355 15.2237C237.902 12.6789 236.286 10.6169 233.746 10.6169C231.207 10.6169 228.702 12.6789 228.155 15.2237C227.608 17.7685 229.224 19.8305 231.764 19.8305Z" fill="#6EC344"/>
<path d="M284.062 18.3721C279.169 18.3721 274.517 21.0627 271.712 24.6486C270.221 20.585 266.522 18.3721 261.448 18.3721C257.153 18.3721 253.394 20.2229 250.95 22.9739L251.667 18.7292H241.464L235.618 52.0881H245.82L249.042 33.6761V33.9728C249.76 29.6074 252.741 27.2185 256.621 27.2185C260.5 27.2185 262.527 29.6074 261.81 33.9728L258.588 52.0881H268.731L271.952 33.9728C272.67 29.6074 275.651 27.2185 279.531 27.2185C283.41 27.2185 285.437 29.6074 284.72 33.9728L281.498 52.0881H291.64L295.103 32.5998C296.714 23.6327 292.298 18.3721 284.067 18.3721H284.062Z" fill="#6EC344"/>
</g>
<g clip-path="url(#clip1_921_7162)">
<path d="M38.1709 19.9678C39.3653 13.3292 35.0092 9.08952 26.4825 9.08952H7.62759L1.84113 41.8601C5.00286 38.073 8.62128 34.5878 8.62128 34.5878C8.62128 34.5878 9.7856 36.509 11.0001 39.0638C11.3815 39.8383 11.7629 40.6631 12.1092 41.5231L13.5245 33.4864H20.9169C24.3245 33.4864 26.1112 35.2768 25.519 38.2692C24.977 41.3219 22.834 42.9313 19.3712 42.9313H12.6512C12.7466 43.1979 12.8419 43.4493 12.9273 43.7159C13.5847 45.6974 13.9561 47.6286 13.6449 49.0368C13.4944 49.7359 13.2635 50.4148 12.9674 51.0636H19.7275C28.5502 51.0636 34.4622 46.5775 35.6465 39.6472C36.4847 34.8644 34.0356 30.5644 29.3833 29.5435C33.6792 28.3465 37.2625 25.0574 38.1508 19.9728L38.1709 19.9678ZM27.4963 21.7079C27.0195 24.5796 24.8716 26.1286 21.4639 26.1286H14.8444L16.4001 17.1615H23.0749C26.4173 17.1615 27.9731 18.7859 27.4963 21.7079Z" fill="#13834B"/>
<path d="M49.749 51.0635H39.5461L45.3928 17.7045H55.5957L54.5217 23.7447C57.5028 19.9174 61.623 17.3475 66.1549 17.3475L64.2428 28.1704H61.4373C56.6044 28.1704 53.5029 29.8451 52.4891 35.5835L49.744 51.0686L49.749 51.0635Z" fill="#6EC344"/>
<path d="M83.695 17.2218C88.6434 17.2218 91.7499 19.495 93.0598 22.422L93.8929 17.6996H104.096L98.1888 51.0585H87.986L88.8793 46.3361C86.4954 49.2681 82.5558 51.5363 77.6024 51.5363C69.4873 51.5363 64.1776 44.8424 66.0295 34.3162C67.8814 23.795 75.5147 17.2168 83.69 17.2168L83.695 17.2218ZM85.1253 26.1286C81.3062 26.1286 77.3114 29.0003 76.418 34.3212C75.4645 39.6421 78.3853 42.6295 82.2045 42.6295C86.0237 42.6295 90.0185 39.6975 90.972 34.3816C91.9256 29.0606 89.0047 26.1336 85.1253 26.1336V26.1286Z" fill="#6EC344"/>
<path d="M157.203 51.5413C147.421 51.5413 141.514 44.9631 143.421 34.3815C145.273 23.8 153.323 17.2218 163.23 17.2218C173.137 17.2218 178.742 23.6793 176.951 33.7831C176.77 34.7386 176.534 35.6942 176.233 36.7101H153.147C152.671 41.1358 154.994 43.228 158.337 43.228C161.202 43.228 163.049 41.7947 164.183 39.9992H175.044C172.238 46.5171 165.498 51.5363 157.208 51.5363L157.203 51.5413ZM154.101 31.5149H166.929C167.526 27.5116 165.077 25.4194 161.619 25.4194C158.161 25.4194 155.295 27.572 154.101 31.5149Z" fill="#6EC344"/>
<path d="M119.423 30.4486L120.08 27.3959L121.902 17.3676H111.699L107.629 40.0998L106.635 45.9789C108.522 43.3587 109.14 42.4937 112.793 37.9271C115.077 35.0755 117.641 32.3396 119.423 30.4537V30.4486Z" fill="#6EC344"/>
<path d="M11.6078 48.6796C11.392 49.6955 10.9252 50.651 10.2828 51.4708C8.92781 53.2411 6.7949 54.433 4.63689 54.433C2.70974 54.433 1.20918 53.4775 0.481475 52.0139C0.335935 51.7273 0.225526 51.4205 0.145228 51.0936C-0.0354425 50.3593 -0.055517 49.5446 0.130172 48.6796C0.260656 48.0811 0.616978 47.3518 1.11884 46.5622C3.27685 43.1273 8.05959 38.5155 8.05959 38.5155C8.05959 38.5155 8.88265 39.8683 9.74083 41.6638C10.2276 42.6696 10.7245 43.8163 11.1009 44.9378C11.5626 46.3359 11.8236 47.6938 11.6128 48.6846L11.6078 48.6796Z" fill="#13834B"/>
<path d="M118.213 54.569C118.213 54.569 143.999 -7.5975 224.593 6.43912C213.963 4.58836 172.469 -12.6569 132.928 18.3785C123.232 25.8269 111.518 37.1678 101.235 54.3678C114.645 54.3678 118.213 54.574 118.213 54.574V54.569Z" fill="url(#paint0_linear_921_7162)"/>
<path d="M108.693 54.2067C109.455 52.7935 110.284 51.4356 111.137 50.0828L111.543 50.3393C110.7 51.6821 109.877 53.045 109.134 54.4381L108.688 54.2067H108.693Z" fill="white"/>
<path d="M116.381 42.5439C118.233 40.1047 120.175 37.7359 122.203 35.4476L122.509 35.7192C120.496 38.0075 118.569 40.3763 116.737 42.8154L116.381 42.5439Z" fill="white"/>
<path d="M128.551 28.8191C130.754 26.6968 133.043 24.6599 135.412 22.7337L135.628 23.0003C133.269 24.9365 131 26.9684 128.812 29.0957L128.551 28.8241V28.8191Z" fill="white"/>
<path d="M142.779 17.2669C145.314 15.557 147.933 13.9677 150.623 12.5143L150.754 12.7507C148.079 14.2091 145.474 15.8084 142.955 17.5184L142.784 17.2669H142.779Z" fill="white"/>
<path d="M158.899 8.57134C161.724 7.40455 164.61 6.38865 167.546 5.53368L167.601 5.72479C164.68 6.58982 161.805 7.61578 158.989 8.7876L158.899 8.57134Z" fill="white"/>
<path d="M176.469 3.45658C179.48 2.92851 182.517 2.57143 185.563 2.37529L185.573 2.50102C182.532 2.70722 179.5 3.07938 176.499 3.61751L176.469 3.45658Z" fill="white"/>
<path d="M194.717 2.27473C197.768 2.40047 200.809 2.6821 203.836 3.10456V3.15988C200.804 2.74748 197.763 2.48093 194.717 2.36526V2.27473Z" fill="white"/>
<path d="M115.895 31.8014C113.28 34.5474 112.723 35.1609 110.745 37.3135L122.419 47.2714L126.494 50.9528H140.24L117.711 29.7243L115.9 31.7964L115.895 31.8014Z" fill="#6EC344"/>
</g>
<defs>
<linearGradient id="paint0_linear_921_7162" x1="98.2741" y1="52.6981" x2="211.402" y2="-5.01972" gradientUnits="userSpaceOnUse">
<stop stop-color="#13834B"/>
<stop offset="0.24" stop-color="#18854E" stop-opacity="0.98"/>
<stop offset="0.41" stop-color="#288E5B" stop-opacity="0.91"/>
<stop offset="0.56" stop-color="#459D71" stop-opacity="0.79"/>
<stop offset="0.7" stop-color="#6DB28F" stop-opacity="0.62"/>
<stop offset="0.83" stop-color="#A0CDB7" stop-opacity="0.4"/>
<stop offset="0.95" stop-color="#DFEEE6" stop-opacity="0.13"/>
<stop offset="1" stop-color="white" stop-opacity="0"/>
</linearGradient>
<clipPath id="clip0_921_7162">
<rect width="155.48" height="42.2163" fill="white" transform="translate(185.34 10.2967)"/>
</clipPath>
<clipPath id="clip1_921_7162">
<rect width="216.23" height="54.5723" fill="white"/>
</clipPath>
</defs>
</svg>
